<svg xmlns="http://www.w3.org/2000/svg" xmlns:xlink="http://www.w3.org/1999/xlink" width="166" height="34" fill="none" xmlns:v="https://vecta.io/nano"><g fill="#5e93db"><path d="M23.445 11.627h-5.091a7.4 7.4 0 0 0-5.89-2.905c-4.433 0-7.707 3.564-7.707 8.286s3.27 8.286 7.707 8.286c2.471 0 4.582-1.163 5.89-2.91h5.091c-1.927 4.363-5.706 7.163-10.976 7.163C5.346 29.547 0 24.205 0 17.008S5.346 4.469 12.469 4.469c5.271 0 9.05 2.835 10.977 7.158zm80.004-6.689h-4.761v24.134h4.761V4.938zM78.263 15.554V9.195h6.833c2.471 0 3.928 1.238 3.928 3.164s-1.453 3.2-3.928 3.2h-6.833v-.004zm12.438 7.812a8.93 8.93 0 0 0-6.307-3.476v-.307h2.418c3.832 0 6.965-2.805 6.965-7.228 0-3.963-2.616-7.417-8.361-7.417H73.492v24.134h4.762v-9.269h3.818l7.053 9.269h5.925l-4.354-5.71.004.004zm-56.827-3.888l1.966-4.446c1.273-2.875 1.488-5.284 1.567-6.662h.307c.07 2.379.597 4.718 1.549 6.899l1.843 4.209h-7.233zm6.035-14.54h-4.652L24.75 29.072h4.872l2.361-5.346h11.012l2.361 5.346h5.051L39.9 4.938h.009zm9.45 0V9.19h7.887v19.881h4.762V12.056c0-1.33-1.023-2.436-2.348-2.537V9.19h10.2V4.938h-20.5zm72.118-1.708a3.23 3.23 0 1 1 3.23 3.23c-1.787 0-3.23-1.444-3.23-3.23z"/><use xlink:href="#B"/><use xlink:href="#B" x="19.484"/><path d="M114.156 17.011a3.23 3.23 0 1 1-6.461 0 3.23 3.23 0 1 1 6.461 0zm4.039 9.735a3.23 3.23 0 1 1-6.461 0 3.23 3.23 0 1 1 6.461 0zm9.742 4.031a3.23 3.23 0 0 1-3.23 3.23c-1.787 0-3.23-1.444-3.23-3.23s1.443-3.23 3.23-3.23a3.23 3.23 0 0 1 3.23 3.23zm9.734-4.031a3.23 3.23 0 1 1-6.46 0 3.23 3.23 0 1 1 6.46 0zm4.039-9.735a3.23 3.23 0 1 1-6.46 0 3.23 3.23 0 1 1 6.46 0zm24.289-12.073h-4.762V16.95c0 2.054.562 4.064 1.62 5.815v.496L150.401 4.938h-4.432v24.134h4.762V15.927c0-1.312-.395-2.594-1.133-3.678l-.513-.755v-.676l12.411 18.253h4.508V4.938h-.005z"/></g><defs ><path id="B" d="M114.965 9.758a2.49 2.49 0 0 1-2.489-2.488 2.49 2.49 0 0 1 2.489-2.488 2.49 2.49 0 0 1 2.488 2.488 2.49 2.49 0 0 1-2.488 2.488zm0-5.719a3.23 3.23 0 1 0 0 6.46 3.23 3.23 0 1 0 0-6.46z"/></defs></svg>